<?xml version="1.0" encoding="utf-8" standalone="no"?>
<!DOCTYPE svg PUBLIC "-//W3C//DTD SVG 1.1//EN"
  "http://www.w3.org/Graphics/SVG/1.1/DTD/svg11.dtd">
<!-- Created with matplotlib (http://matplotlib.org/) -->
<svg height="576pt" version="1.1" viewBox="0 0 864 576" width="864pt" xmlns="http://www.w3.org/2000/svg" xmlns:xlink="http://www.w3.org/1999/xlink">
 <defs>
  <style type="text/css">
*{stroke-linecap:square;stroke-linejoin:round;}
  </style>
 </defs>
 <g id="figure_1">
  <g id="patch_1">
   <path d="
M0 576
L864 576
L864 0
L0 0
z
" style="fill:#ffffff;"/>
  </g>
  <g id="axes_1">
   <g id="patch_2">
    <path d="
M108 518.4
L777.6 518.4
L777.6 57.6
L108 57.6
z
" style="fill:#ffffff;"/>
   </g>
   <g id="line2d_1">
    <path clip-path="url(#p40d8c4fc83)" d="
M777.433 78.5455
L574.879 78.6542
L549.099 78.902
L531.522 79.2852
L517.795 79.8
L506.412 80.4434
L496.703 81.2081
L488.165 82.0976
L480.465 83.1222
L473.602 84.256
L467.24 85.5321
L461.381 86.9362
L456.025 88.4449
L451.003 90.0851
L446.148 91.9084
L441.628 93.8439
L437.276 95.9513
L433.091 98.2289
L429.073 100.672
L425.223 103.273
L421.54 106.019
L417.857 109.041
L414.175 112.36
L410.659 115.827
L407.144 119.606
L403.628 123.717
L400.113 128.181
L396.598 133.016
L393.082 138.24
L389.567 143.871
L386.051 149.922
L382.369 156.725
L378.686 164.011
L375.003 171.783
L371.153 180.428
L367.135 190.003
L362.95 200.557
L358.43 212.577
L353.576 226.137
L348.219 241.758
L341.523 262.007
L316.915 337.161
L311.558 352.398
L306.704 365.551
L302.184 377.163
L297.999 387.327
L293.981 396.531
L289.964 405.178
L286.114 412.941
L282.263 420.196
L278.581 426.668
L274.898 432.696
L271.215 438.294
L267.532 443.479
L263.849 448.271
L260.167 452.688
L256.484 456.753
L252.801 460.485
L249.118 463.905
L245.435 467.034
L241.753 469.891
L237.902 472.609
L233.885 475.173
L229.7 477.573
L225.515 479.721
L221.162 481.712
L216.475 483.604
L211.955 485.207
L206.766 486.807
L201.409 488.221
L195.718 489.493
L189.691 490.614
L182.828 491.65
L175.295 492.542
L167.092 493.273
L158.053 493.849
L148.176 494.265
L134.282 494.576
L116.705 494.667
L108 494.631
L108.837 494.566
L135.956 492.605
L146.837 491.547
L157.216 490.295
L166.088 488.975
L173.286 487.691
L179.982 486.288
L186.511 484.692
L192.704 482.936
L198.061 481.2
L203.418 479.235
L208.44 477.16
L213.462 474.834
L217.982 472.503
L222.502 469.926
L227.021 467.079
L231.374 464.059
L235.559 460.876
L239.576 457.543
L243.427 454.075
L247.444 450.15
L251.127 446.261
L254.977 441.88
L258.827 437.158
L262.678 432.076
L266.528 426.62
L270.378 420.774
L274.228 414.522
L278.246 407.556
L282.263 400.127
L286.448 391.892
L290.633 383.15
L294.986 373.529
L299.338 363.384
L304.025 351.905
L309.215 338.582
L314.739 323.788
L321.435 305.193
L330.977 277.977
L343.532 242.311
L349.893 224.921
L355.25 210.881
L360.104 198.744
L364.624 188.013
L368.809 178.605
L372.994 169.732
L377.012 161.731
L380.862 154.543
L384.712 147.824
L388.562 141.567
L392.245 136.004
L395.928 130.842
L399.611 126.064
L403.294 121.654
L406.976 117.594
L410.659 113.863
L414.342 110.443
L418.025 107.312
L421.875 104.328
L425.725 101.616
L429.743 99.0541
L433.928 96.6513
L438.28 94.4134
L442.8 92.3432
L447.487 90.4404
L452.509 88.6459
L457.699 87.0244
L463.39 85.4816
L469.417 84.0777
L476.113 82.7501
L483.478 81.5217
L491.681 80.3823
L501.055 79.3086
L511.936 78.2905
L524.826 77.3149
L539.557 76.4268
L555.46 75.6914
L571.865 75.1558
L589.275 74.8139
L609.196 74.6544
L634.64 74.6878
L675.988 74.9948
L777.6 75.8429
L777.6 75.8429" style="fill:none;stroke:#008000;stroke-dasharray:6.000000,6.000000;stroke-dashoffset:0.0;stroke-linecap:butt;stroke-width:3.0;"/>
   </g>
   <g id="line2d_2">
    <path clip-path="url(#p40d8c4fc83)" d="
M777.433 78.5455
L581.909 78.6546
L562.156 78.8923
L549.936 79.2494
L540.896 79.7275
L533.698 80.3243
L527.672 81.0416
L522.482 81.8776
L517.963 82.82
L513.778 83.9162
L509.927 85.1566
L506.412 86.5213
L503.064 88.063
L499.883 89.7804
L496.87 91.667
L494.024 93.7104
L491.179 96.0378
L488.5 98.5153
L485.822 101.299
L483.143 104.415
L480.465 107.892
L477.787 111.757
L475.108 116.036
L472.43 120.754
L469.751 125.931
L467.073 131.587
L464.227 138.135
L461.381 145.248
L458.368 153.395
L455.188 162.673
L451.84 173.163
L448.324 184.923
L444.474 198.586
L439.954 215.492
L434.263 237.725
L416.686 307.079
L411.831 324.958
L407.479 340.139
L403.461 353.348
L399.611 365.236
L395.928 375.882
L392.413 385.379
L388.897 394.236
L385.549 402.092
L382.201 409.403
L378.853 416.19
L375.505 422.479
L372.157 428.298
L368.809 433.673
L365.461 438.633
L362.113 443.204
L358.598 447.614
L355.25 451.469
L351.734 455.181
L348.219 458.576
L344.704 461.678
L340.853 464.766
L337.171 467.442
L333.32 469.976
L329.47 472.263
L325.285 474.493
L321.1 476.485
L316.58 478.392
L311.726 480.192
L306.704 481.811
L301.514 483.256
L295.321 484.718
L289.462 485.873
L283.268 486.89
L275.902 487.868
L268.034 488.684
L259.33 489.365
L248.114 489.977
L234.889 490.418
L222.334 490.641
L203.251 490.747
L176.132 490.636
L118.379 490.087
L108 489.982
L113.189 489.917
L166.757 489.197
L204.925 488.363
L221.665 487.745
L235.726 486.995
L245.603 486.285
L254.642 485.454
L263.012 484.487
L270.88 483.362
L278.246 482.077
L284.942 480.674
L291.47 479.051
L296.995 477.452
L302.351 475.672
L307.541 473.706
L312.563 471.549
L316.915 469.454
L321.268 467.126
L325.285 464.751
L329.47 462.024
L333.488 459.141
L337.505 455.973
L341.356 452.647
L345.038 449.177
L348.721 445.402
L352.237 441.491
L355.752 437.256
L359.267 432.674
L362.783 427.719
L366.131 422.631
L369.479 417.158
L372.994 410.973
L376.51 404.31
L379.858 397.496
L383.373 389.826
L386.888 381.606
L390.404 372.815
L394.087 362.977
L397.769 352.488
L401.62 340.825
L405.637 327.914
L409.822 313.7
L414.342 297.555
L419.699 277.533
L426.562 250.947
L438.448 204.808
L443.47 186.283
L447.655 171.681
L451.337 159.61
L454.685 149.354
L457.866 140.296
L460.879 132.355
L463.725 125.439
L466.571 119.092
L469.249 113.629
L471.928 108.649
L474.606 104.133
L477.284 100.061
L479.963 96.4076
L482.641 93.1453
L485.32 90.2462
L487.998 87.6818
L490.676 85.4234
L493.355 83.4432
L496.201 81.614
L499.214 79.9527
L502.227 78.5415
L505.408 77.2892
L508.923 76.1495
L512.606 75.189
L516.623 74.3681
L521.143 73.6744
L526.333 73.114
L532.192 72.7099
L539.222 72.4529
L548.095 72.3608
L560.315 72.4724
L581.742 72.9274
L637.988 74.1581
L681.512 74.8483
L734.913 75.4628
L777.6 75.8324
L777.6 75.8324" style="fill:none;stroke:#0000ff;stroke-dasharray:6.000000,6.000000;stroke-dashoffset:0.0;stroke-linecap:butt;stroke-width:3.0;"/>
   </g>
   <g id="line2d_3">
    <path clip-path="url(#p40d8c4fc83)" d="
M777.433 78.5455
L582.412 78.6547
L563.161 78.8903
L551.275 79.2462
L542.57 79.7229
L535.707 80.3172
L530.015 81.0306
L525.161 81.8603
L520.976 82.7926
L517.126 83.8775
L513.61 85.1048
L510.43 86.4525
L507.416 87.9782
L504.738 89.5735
L502.06 91.4304
L499.549 93.4445
L497.205 95.5959
L494.861 98.0437
L492.518 100.824
L490.174 103.977
L487.998 107.275
L485.822 110.967
L483.646 115.09
L481.469 119.685
L479.293 124.789
L477.117 130.444
L474.773 137.193
L472.43 144.666
L470.086 152.904
L467.743 161.935
L465.232 172.511
L462.553 184.822
L459.875 198.177
L456.862 214.373
L453.514 233.667
L449.496 258.244
L443.135 298.852
L436.941 337.932
L433.091 360.816
L429.91 378.454
L427.064 393.08
L424.386 405.758
L421.875 416.649
L419.364 426.568
L417.02 434.962
L414.677 442.548
L412.333 449.364
L410.157 455.041
L407.981 460.132
L405.805 464.677
L403.628 468.719
L401.452 472.302
L399.276 475.466
L397.1 478.25
L394.924 480.693
L392.747 482.83
L390.404 484.825
L388.06 486.54
L385.549 488.105
L382.871 489.504
L380.192 490.663
L377.179 491.724
L373.831 492.65
L370.148 493.42
L365.963 494.043
L360.941 494.521
L355.585 494.797
L349.056 494.91
L340.686 494.832
L328.466 494.491
L256.149 492.133
L228.193 491.502
L173.286 490.572
L108 489.789
L111.181 489.756
L158.89 489.325
L321.602 487.981
L334.994 487.516
L342.695 487.056
L350.06 486.388
L356.087 485.59
L361.109 484.68
L365.461 483.647
L369.144 482.547
L372.492 481.324
L375.505 480.004
L378.518 478.436
L381.197 476.799
L383.875 474.895
L386.386 472.833
L388.897 470.463
L391.241 467.938
L393.584 465.072
L395.928 461.825
L398.104 458.431
L400.28 454.634
L402.457 450.397
L404.633 445.68
L406.809 440.443
L409.153 434.177
L411.496 427.217
L413.84 419.52
L416.183 411.049
L418.527 401.779
L421.038 390.944
L423.716 378.358
L426.562 363.857
L429.575 347.324
L433.091 326.704
L437.276 300.748
L451.337 212.312
L454.685 193.289
L457.699 177.403
L460.544 163.601
L463.223 151.734
L465.734 141.613
L468.077 133.034
L470.421 125.269
L472.765 118.284
L474.941 112.459
L477.117 107.23
L479.293 102.555
L481.469 98.3934
L483.646 94.7015
L485.822 91.4377
L487.998 88.5621
L490.174 86.0365
L492.518 83.6673
L494.861 81.6213
L497.205 79.8609
L499.716 78.2527
L502.394 76.8127
L505.24 75.5498
L508.253 74.4665
L511.434 73.5595
L514.949 72.7888
L518.967 72.1466
L523.487 71.6598
L528.676 71.3289
L535.037 71.1556
L543.24 71.1709
L554.958 71.4368
L581.072 72.31
L612.878 73.2662
L645.187 74.0049
L684.693 74.6765
L734.913 75.2971
L777.6 75.6937
L777.6 75.6937" style="fill:none;stroke:#ff0000;stroke-width:3.0;"/>
   </g>
   <g id="matplotlib.axis_1">
    <g id="xtick_1">
     <g id="line2d_4">
      <defs>
       <path d="
M0 0
L0 -5" id="m6aac6fddce" style="stroke:#000000;stroke-linecap:butt;stroke-width:0.5;"/>
      </defs>
      <g>
       <use style="stroke:#000000;stroke-linecap:butt;stroke-width:0.5;" x="181.909684297" xlink:href="#m6aac6fddce" y="518.4"/>
      </g>
     </g>
     <g id="line2d_5">
      <defs>
       <path d="
M0 0
L0 5" id="m4b5c49ac54" style="stroke:#000000;stroke-linecap:butt;stroke-width:0.5;"/>
      </defs>
      <g>
       <use style="stroke:#000000;stroke-linecap:butt;stroke-width:0.5;" x="181.909684297" xlink:href="#m4b5c49ac54" y="57.6"/>
      </g>
     </g>
     <g id="text_1">
      <!-- −0.4 -->
      <defs>
       <path d="
M31.7812 66.4062
Q24.1719 66.4062 20.3281 58.9062
Q16.5 51.4219 16.5 36.375
Q16.5 21.3906 20.3281 13.8906
Q24.1719 6.39062 31.7812 6.39062
Q39.4531 6.39062 43.2812 13.8906
Q47.125 21.3906 47.125 36.375
Q47.125 51.4219 43.2812 58.9062
Q39.4531 66.4062 31.7812 66.4062
M31.7812 74.2188
Q44.0469 74.2188 50.5156 64.5156
Q56.9844 54.8281 56.9844 36.375
Q56.9844 17.9688 50.5156 8.26562
Q44.0469 -1.42188 31.7812 -1.42188
Q19.5312 -1.42188 13.0625 8.26562
Q6.59375 17.9688 6.59375 36.375
Q6.59375 54.8281 13.0625 64.5156
Q19.5312 74.2188 31.7812 74.2188" id="DejaVuSans-30"/>
       <path d="
M10.6875 12.4062
L21 12.4062
L21 0
L10.6875 0
z
" id="DejaVuSans-2e"/>
       <path d="
M37.7969 64.3125
L12.8906 25.3906
L37.7969 25.3906
z

M35.2031 72.9062
L47.6094 72.9062
L47.6094 25.3906
L58.0156 25.3906
L58.0156 17.1875
L47.6094 17.1875
L47.6094 0
L37.7969 0
L37.7969 17.1875
L4.89062 17.1875
L4.89062 26.7031
z
" id="DejaVuSans-34"/>
       <path d="
M10.5938 35.5
L73.1875 35.5
L73.1875 27.2031
L10.5938 27.2031
z
" id="DejaVuSans-2212"/>
      </defs>
      <g transform="translate(159.247184297 537.24375)scale(0.2 -0.2)">
       <use xlink:href="#DejaVuSans-2212"/>
       <use x="83.7890625" xlink:href="#DejaVuSans-30"/>
       <use x="147.412109375" xlink:href="#DejaVuSans-2e"/>
       <use x="179.19921875" xlink:href="#DejaVuSans-34"/>
      </g>
     </g>
    </g>
    <g id="xtick_2">
     <g id="line2d_6">
      <g>
       <use style="stroke:#000000;stroke-linecap:butt;stroke-width:0.5;" x="312.354842149" xlink:href="#m6aac6fddce" y="518.4"/>
      </g>
     </g>
     <g id="line2d_7">
      <g>
       <use style="stroke:#000000;stroke-linecap:butt;stroke-width:0.5;" x="312.354842149" xlink:href="#m4b5c49ac54" y="57.6"/>
      </g>
     </g>
     <g id="text_2">
      <!-- −0.2 -->
      <defs>
       <path d="
M19.1875 8.29688
L53.6094 8.29688
L53.6094 0
L7.32812 0
L7.32812 8.29688
Q12.9375 14.1094 22.625 23.8906
Q32.3281 33.6875 34.8125 36.5312
Q39.5469 41.8438 41.4219 45.5312
Q43.3125 49.2188 43.3125 52.7812
Q43.3125 58.5938 39.2344 62.25
Q35.1562 65.9219 28.6094 65.9219
Q23.9688 65.9219 18.8125 64.3125
Q13.6719 62.7031 7.8125 59.4219
L7.8125 69.3906
Q13.7656 71.7812 18.9375 73
Q24.125 74.2188 28.4219 74.2188
Q39.75 74.2188 46.4844 68.5469
Q53.2188 62.8906 53.2188 53.4219
Q53.2188 48.9219 51.5312 44.8906
Q49.8594 40.875 45.4062 35.4062
Q44.1875 33.9844 37.6406 27.2188
Q31.1094 20.4531 19.1875 8.29688" id="DejaVuSans-32"/>
      </defs>
      <g transform="translate(290.132967149 537.24375)scale(0.2 -0.2)">
       <use xlink:href="#DejaVuSans-2212"/>
       <use x="83.7890625" xlink:href="#DejaVuSans-30"/>
       <use x="147.412109375" xlink:href="#DejaVuSans-2e"/>
       <use x="179.19921875" xlink:href="#DejaVuSans-32"/>
      </g>
     </g>
    </g>
    <g id="xtick_3">
     <g id="line2d_8">
      <g>
       <use style="stroke:#000000;stroke-linecap:butt;stroke-width:0.5;" x="442.8" xlink:href="#m6aac6fddce" y="518.4"/>
      </g>
     </g>
     <g id="line2d_9">
      <g>
       <use style="stroke:#000000;stroke-linecap:butt;stroke-width:0.5;" x="442.8" xlink:href="#m4b5c49ac54" y="57.6"/>
      </g>
     </g>
     <g id="text_3">
      <!-- 0.0 -->
      <g transform="translate(428.2203125 537.24375)scale(0.2 -0.2)">
       <use xlink:href="#DejaVuSans-30"/>
       <use x="63.623046875" xlink:href="#DejaVuSans-2e"/>
       <use x="95.41015625" xlink:href="#DejaVuSans-30"/>
      </g>
     </g>
    </g>
    <g id="xtick_4">
     <g id="line2d_10">
      <g>
       <use style="stroke:#000000;stroke-linecap:butt;stroke-width:0.5;" x="573.245157851" xlink:href="#m6aac6fddce" y="518.4"/>
      </g>
     </g>
     <g id="line2d_11">
      <g>
       <use style="stroke:#000000;stroke-linecap:butt;stroke-width:0.5;" x="573.245157851" xlink:href="#m4b5c49ac54" y="57.6"/>
      </g>
     </g>
     <g id="text_4">
      <!-- 0.2 -->
      <g transform="translate(559.002970351 537.24375)scale(0.2 -0.2)">
       <use xlink:href="#DejaVuSans-30"/>
       <use x="63.623046875" xlink:href="#DejaVuSans-2e"/>
       <use x="95.41015625" xlink:href="#DejaVuSans-32"/>
      </g>
     </g>
    </g>
    <g id="xtick_5">
     <g id="line2d_12">
      <g>
       <use style="stroke:#000000;stroke-linecap:butt;stroke-width:0.5;" x="703.690315703" xlink:href="#m6aac6fddce" y="518.4"/>
      </g>
     </g>
     <g id="line2d_13">
      <g>
       <use style="stroke:#000000;stroke-linecap:butt;stroke-width:0.5;" x="703.690315703" xlink:href="#m4b5c49ac54" y="57.6"/>
      </g>
     </g>
     <g id="text_5">
      <!-- 0.4 -->
      <g transform="translate(689.007503203 537.24375)scale(0.2 -0.2)">
       <use xlink:href="#DejaVuSans-30"/>
       <use x="63.623046875" xlink:href="#DejaVuSans-2e"/>
       <use x="95.41015625" xlink:href="#DejaVuSans-34"/>
      </g>
     </g>
    </g>
    <g id="text_6">
     <!-- E (V) -->
     <defs>
      <path d="
M9.8125 72.9062
L55.9062 72.9062
L55.9062 64.5938
L19.6719 64.5938
L19.6719 43.0156
L54.3906 43.0156
L54.3906 34.7188
L19.6719 34.7188
L19.6719 8.29688
L56.7812 8.29688
L56.7812 0
L9.8125 0
z
" id="DejaVuSans-45"/>
      <path id="DejaVuSans-20"/>
      <path d="
M8.01562 75.875
L15.8281 75.875
Q23.1406 64.3594 26.7812 53.3125
Q30.4219 42.2812 30.4219 31.3906
Q30.4219 20.4531 26.7812 9.375
Q23.1406 -1.70312 15.8281 -13.1875
L8.01562 -13.1875
Q14.5 -2 17.7031 9.0625
Q20.9062 20.125 20.9062 31.3906
Q20.9062 42.6719 17.7031 53.6562
Q14.5 64.6562 8.01562 75.875" id="DejaVuSans-29"/>
      <path d="
M31 75.875
Q24.4688 64.6562 21.2812 53.6562
Q18.1094 42.6719 18.1094 31.3906
Q18.1094 20.125 21.3125 9.0625
Q24.5156 -2 31 -13.1875
L23.1875 -13.1875
Q15.875 -1.70312 12.2344 9.375
Q8.59375 20.4531 8.59375 31.3906
Q8.59375 42.2812 12.2031 53.3125
Q15.8281 64.3594 23.1875 75.875
z
" id="DejaVuSans-28"/>
      <path d="
M28.6094 0
L0.78125 72.9062
L11.0781 72.9062
L34.1875 11.5312
L57.3281 72.9062
L67.5781 72.9062
L39.7969 0
z
" id="DejaVuSans-56"/>
     </defs>
     <g transform="translate(419.51875 557.703125)scale(0.2 -0.2)">
      <use xlink:href="#DejaVuSans-45"/>
      <use x="63.18359375" xlink:href="#DejaVuSans-20"/>
      <use x="94.970703125" xlink:href="#DejaVuSans-28"/>
      <use x="133.984375" xlink:href="#DejaVuSans-56"/>
      <use x="202.392578125" xlink:href="#DejaVuSans-29"/>
     </g>
    </g>
   </g>
   <g id="matplotlib.axis_2">
    <g id="ytick_1">
     <g id="line2d_14">
      <defs>
       <path d="
M0 0
L5 0" id="m231770b6f4" style="stroke:#000000;stroke-linecap:butt;stroke-width:0.5;"/>
      </defs>
      <g>
       <use style="stroke:#000000;stroke-linecap:butt;stroke-width:0.5;" x="108.0" xlink:href="#m231770b6f4" y="497.454545455"/>
      </g>
     </g>
     <g id="line2d_15">
      <defs>
       <path d="
M0 0
L-5 0" id="mb336220e2d" style="stroke:#000000;stroke-linecap:butt;stroke-width:0.5;"/>
      </defs>
      <g>
       <use style="stroke:#000000;stroke-linecap:butt;stroke-width:0.5;" x="777.6" xlink:href="#mb336220e2d" y="497.454545455"/>
      </g>
     </g>
     <g id="text_7">
      <!-- −20 -->
      <g transform="translate(65.2375 504.734232955)scale(0.2 -0.2)">
       <use xlink:href="#DejaVuSans-2212"/>
       <use x="83.7890625" xlink:href="#DejaVuSans-32"/>
       <use x="147.412109375" xlink:href="#DejaVuSans-30"/>
      </g>
     </g>
    </g>
    <g id="ytick_2">
     <g id="line2d_16">
      <g>
       <use style="stroke:#000000;stroke-linecap:butt;stroke-width:0.5;" x="108.0" xlink:href="#m231770b6f4" y="392.727272727"/>
      </g>
     </g>
     <g id="line2d_17">
      <g>
       <use style="stroke:#000000;stroke-linecap:butt;stroke-width:0.5;" x="777.6" xlink:href="#mb336220e2d" y="392.727272727"/>
      </g>
     </g>
     <g id="text_8">
      <!-- −15 -->
      <defs>
       <path d="
M12.4062 8.29688
L28.5156 8.29688
L28.5156 63.9219
L10.9844 60.4062
L10.9844 69.3906
L28.4219 72.9062
L38.2812 72.9062
L38.2812 8.29688
L54.3906 8.29688
L54.3906 0
L12.4062 0
z
" id="DejaVuSans-31"/>
       <path d="
M10.7969 72.9062
L49.5156 72.9062
L49.5156 64.5938
L19.8281 64.5938
L19.8281 46.7344
Q21.9688 47.4688 24.1094 47.8281
Q26.2656 48.1875 28.4219 48.1875
Q40.625 48.1875 47.75 41.5
Q54.8906 34.8125 54.8906 23.3906
Q54.8906 11.625 47.5625 5.09375
Q40.2344 -1.42188 26.9062 -1.42188
Q22.3125 -1.42188 17.5469 -0.640625
Q12.7969 0.140625 7.71875 1.70312
L7.71875 11.625
Q12.1094 9.23438 16.7969 8.0625
Q21.4844 6.89062 26.7031 6.89062
Q35.1562 6.89062 40.0781 11.3281
Q45.0156 15.7656 45.0156 23.3906
Q45.0156 31 40.0781 35.4375
Q35.1562 39.8906 26.7031 39.8906
Q22.75 39.8906 18.8125 39.0156
Q14.8906 38.1406 10.7969 36.2812
z
" id="DejaVuSans-35"/>
      </defs>
      <g transform="translate(65.65625 399.875710227)scale(0.2 -0.2)">
       <use xlink:href="#DejaVuSans-2212"/>
       <use x="83.7890625" xlink:href="#DejaVuSans-31"/>
       <use x="147.412109375" xlink:href="#DejaVuSans-35"/>
      </g>
     </g>
    </g>
    <g id="ytick_3">
     <g id="line2d_18">
      <g>
       <use style="stroke:#000000;stroke-linecap:butt;stroke-width:0.5;" x="108.0" xlink:href="#m231770b6f4" y="288.0"/>
      </g>
     </g>
     <g id="line2d_19">
      <g>
       <use style="stroke:#000000;stroke-linecap:butt;stroke-width:0.5;" x="777.6" xlink:href="#mb336220e2d" y="288.0"/>
      </g>
     </g>
     <g id="text_9">
      <!-- −10 -->
      <g transform="translate(65.2375 295.2796875)scale(0.2 -0.2)">
       <use xlink:href="#DejaVuSans-2212"/>
       <use x="83.7890625" xlink:href="#DejaVuSans-31"/>
       <use x="147.412109375" xlink:href="#DejaVuSans-30"/>
      </g>
     </g>
    </g>
    <g id="ytick_4">
     <g id="line2d_20">
      <g>
       <use style="stroke:#000000;stroke-linecap:butt;stroke-width:0.5;" x="108.0" xlink:href="#m231770b6f4" y="183.272727273"/>
      </g>
     </g>
     <g id="line2d_21">
      <g>
       <use style="stroke:#000000;stroke-linecap:butt;stroke-width:0.5;" x="777.6" xlink:href="#mb336220e2d" y="183.272727273"/>
      </g>
     </g>
     <g id="text_10">
      <!-- −5 -->
      <g transform="translate(78.38125 190.421164773)scale(0.2 -0.2)">
       <use xlink:href="#DejaVuSans-2212"/>
       <use x="83.7890625" xlink:href="#DejaVuSans-35"/>
      </g>
     </g>
    </g>
    <g id="ytick_5">
     <g id="line2d_22">
      <g>
       <use style="stroke:#000000;stroke-linecap:butt;stroke-width:0.5;" x="108.0" xlink:href="#m231770b6f4" y="78.5454545455"/>
      </g>
     </g>
     <g id="line2d_23">
      <g>
       <use style="stroke:#000000;stroke-linecap:butt;stroke-width:0.5;" x="777.6" xlink:href="#mb336220e2d" y="78.5454545455"/>
      </g>
     </g>
     <g id="text_11">
      <!-- 0 -->
      <g transform="translate(93.921875 85.8251420455)scale(0.2 -0.2)">
       <use xlink:href="#DejaVuSans-30"/>
      </g>
     </g>
    </g>
    <g id="text_12">
     <!-- I (*$\mathregular{10^{-8}}$A) -->
     <defs>
      <path d="
M31.7812 34.625
Q24.75 34.625 20.7188 30.8594
Q16.7031 27.0938 16.7031 20.5156
Q16.7031 13.9219 20.7188 10.1562
Q24.75 6.39062 31.7812 6.39062
Q38.8125 6.39062 42.8594 10.1719
Q46.9219 13.9688 46.9219 20.5156
Q46.9219 27.0938 42.8906 30.8594
Q38.875 34.625 31.7812 34.625
M21.9219 38.8125
Q15.5781 40.375 12.0312 44.7188
Q8.5 49.0781 8.5 55.3281
Q8.5 64.0625 14.7188 69.1406
Q20.9531 74.2188 31.7812 74.2188
Q42.6719 74.2188 48.875 69.1406
Q55.0781 64.0625 55.0781 55.3281
Q55.0781 49.0781 51.5312 44.7188
Q48 40.375 41.7031 38.8125
Q48.8281 37.1562 52.7969 32.3125
Q56.7812 27.4844 56.7812 20.5156
Q56.7812 9.90625 50.3125 4.23438
Q43.8438 -1.42188 31.7812 -1.42188
Q19.7344 -1.42188 13.25 4.23438
Q6.78125 9.90625 6.78125 20.5156
Q6.78125 27.4844 10.7812 32.3125
Q14.7969 37.1562 21.9219 38.8125
M18.3125 54.3906
Q18.3125 48.7344 21.8438 45.5625
Q25.3906 42.3906 31.7812 42.3906
Q38.1406 42.3906 41.7188 45.5625
Q45.3125 48.7344 45.3125 54.3906
Q45.3125 60.0625 41.7188 63.2344
Q38.1406 66.4062 31.7812 66.4062
Q25.3906 66.4062 21.8438 63.2344
Q18.3125 60.0625 18.3125 54.3906" id="DejaVuSans-38"/>
      <path d="
M47.0156 60.8906
L29.5 51.4219
L47.0156 41.8906
L44.1875 37.1094
L27.7812 47.0156
L27.7812 28.6094
L22.2188 28.6094
L22.2188 47.0156
L5.8125 37.1094
L2.98438 41.8906
L20.5156 51.4219
L2.98438 60.8906
L5.8125 65.7188
L22.2188 55.8125
L22.2188 74.2188
L27.7812 74.2188
L27.7812 55.8125
L44.1875 65.7188
z
" id="DejaVuSans-2a"/>
      <path d="
M9.8125 72.9062
L19.6719 72.9062
L19.6719 0
L9.8125 0
z
" id="DejaVuSans-49"/>
      <path d="
M4.89062 31.3906
L31.2031 31.3906
L31.2031 23.3906
L4.89062 23.3906
z
" id="DejaVuSans-2d"/>
      <path d="
M34.1875 63.1875
L20.7969 26.9062
L47.6094 26.9062
z

M28.6094 72.9062
L39.7969 72.9062
L67.5781 0
L57.3281 0
L50.6875 18.7031
L17.8281 18.7031
L11.1875 0
L0.78125 0
z
" id="DejaVuSans-41"/>
     </defs>
     <g transform="translate(60.2375 334.6)rotate(-90.0)scale(0.2 -0.2)">
      <use transform="translate(0.0 14.234375)" xlink:href="#DejaVuSans-49"/>
      <use transform="translate(29.4921875 14.234375)" xlink:href="#DejaVuSans-20"/>
      <use transform="translate(61.279296875 14.234375)" xlink:href="#DejaVuSans-28"/>
      <use transform="translate(100.29296875 14.234375)" xlink:href="#DejaVuSans-2a"/>
      <use transform="translate(150.29296875 14.234375)" xlink:href="#DejaVuSans-31"/>
      <use transform="translate(213.916015625 14.234375)" xlink:href="#DejaVuSans-30"/>
      <use transform="translate(277.5390625 72.046875)scale(0.7)" xlink:href="#DejaVuSans-2d"/>
      <use transform="translate(302.797851562 72.046875)scale(0.7)" xlink:href="#DejaVuSans-38"/>
      <use transform="translate(358.271484375 14.234375)" xlink:href="#DejaVuSans-41"/>
      <use transform="translate(426.6796875 14.234375)" xlink:href="#DejaVuSans-29"/>
     </g>
    </g>
   </g>
   <g id="patch_3">
    <path d="
M108 57.6
L777.6 57.6" style="fill:none;stroke:#000000;stroke-width:1.5;"/>
   </g>
   <g id="patch_4">
    <path d="
M777.6 518.4
L777.6 57.6" style="fill:none;stroke:#000000;stroke-width:1.5;"/>
   </g>
   <g id="patch_5">
    <path d="
M108 518.4
L777.6 518.4" style="fill:none;stroke:#000000;stroke-width:1.5;"/>
   </g>
   <g id="patch_6">
    <path d="
M108 518.4
L108 57.6" style="fill:none;stroke:#000000;stroke-width:1.5;"/>
   </g>
   <g id="legend_1">
    <g id="patch_7">
     <path d="
M534.944 508.4
L767.6 508.4
L767.6 418.206
L534.944 418.206
L534.944 508.4
z
" style="fill:#ffffff;stroke:#000000;"/>
    </g>
    <g id="line2d_24">
     <path d="
M548.944 434.403
L576.944 434.403" style="fill:none;stroke:#008000;stroke-dasharray:6.000000,6.000000;stroke-dashoffset:0.0;stroke-linecap:butt;stroke-width:3.0;"/>
    </g>
    <g id="line2d_25"/>
    <g id="text_13">
     <!-- Irreversible -->
     <defs>
      <path d="
M2.98438 54.6875
L12.5 54.6875
L29.5938 8.79688
L46.6875 54.6875
L56.2031 54.6875
L35.6875 0
L23.4844 0
z
" id="DejaVuSans-76"/>
      <path d="
M9.42188 75.9844
L18.4062 75.9844
L18.4062 0
L9.42188 0
z
" id="DejaVuSans-6c"/>
      <path d="
M9.42188 54.6875
L18.4062 54.6875
L18.4062 0
L9.42188 0
z

M9.42188 75.9844
L18.4062 75.9844
L18.4062 64.5938
L9.42188 64.5938
z
" id="DejaVuSans-69"/>
      <path d="
M56.2031 29.5938
L56.2031 25.2031
L14.8906 25.2031
Q15.4844 15.9219 20.4844 11.0625
Q25.4844 6.20312 34.4219 6.20312
Q39.5938 6.20312 44.4531 7.46875
Q49.3125 8.73438 54.1094 11.2812
L54.1094 2.78125
Q49.2656 0.734375 44.1875 -0.34375
Q39.1094 -1.42188 33.8906 -1.42188
Q20.7969 -1.42188 13.1562 6.1875
Q5.51562 13.8125 5.51562 26.8125
Q5.51562 40.2344 12.7656 48.1094
Q20.0156 56 32.3281 56
Q43.3594 56 49.7812 48.8906
Q56.2031 41.7969 56.2031 29.5938
M47.2188 32.2344
Q47.125 39.5938 43.0938 43.9844
Q39.0625 48.3906 32.4219 48.3906
Q24.9062 48.3906 20.3906 44.1406
Q15.875 39.8906 15.1875 32.1719
z
" id="DejaVuSans-65"/>
      <path d="
M48.6875 27.2969
Q48.6875 37.2031 44.6094 42.8438
Q40.5312 48.4844 33.4062 48.4844
Q26.2656 48.4844 22.1875 42.8438
Q18.1094 37.2031 18.1094 27.2969
Q18.1094 17.3906 22.1875 11.75
Q26.2656 6.10938 33.4062 6.10938
Q40.5312 6.10938 44.6094 11.75
Q48.6875 17.3906 48.6875 27.2969
M18.1094 46.3906
Q20.9531 51.2656 25.2656 53.625
Q29.5938 56 35.5938 56
Q45.5625 56 51.7812 48.0938
Q58.0156 40.1875 58.0156 27.2969
Q58.0156 14.4062 51.7812 6.48438
Q45.5625 -1.42188 35.5938 -1.42188
Q29.5938 -1.42188 25.2656 0.953125
Q20.9531 3.32812 18.1094 8.20312
L18.1094 0
L9.07812 0
L9.07812 75.9844
L18.1094 75.9844
z
" id="DejaVuSans-62"/>
      <path d="
M44.2812 53.0781
L44.2812 44.5781
Q40.4844 46.5312 36.375 47.5
Q32.2812 48.4844 27.875 48.4844
Q21.1875 48.4844 17.8438 46.4375
Q14.5 44.3906 14.5 40.2812
Q14.5 37.1562 16.8906 35.375
Q19.2812 33.5938 26.5156 31.9844
L29.5938 31.2969
Q39.1562 29.25 43.1875 25.5156
Q47.2188 21.7812 47.2188 15.0938
Q47.2188 7.46875 41.1875 3.01562
Q35.1562 -1.42188 24.6094 -1.42188
Q20.2188 -1.42188 15.4531 -0.5625
Q10.6875 0.296875 5.42188 2
L5.42188 11.2812
Q10.4062 8.6875 15.2344 7.39062
Q20.0625 6.10938 24.8125 6.10938
Q31.1562 6.10938 34.5625 8.28125
Q37.9844 10.4531 37.9844 14.4062
Q37.9844 18.0625 35.5156 20.0156
Q33.0625 21.9688 24.7031 23.7812
L21.5781 24.5156
Q13.2344 26.2656 9.51562 29.9062
Q5.8125 33.5469 5.8125 39.8906
Q5.8125 47.6094 11.2812 51.7969
Q16.75 56 26.8125 56
Q31.7812 56 36.1719 55.2656
Q40.5781 54.5469 44.2812 53.0781" id="DejaVuSans-73"/>
      <path d="
M41.1094 46.2969
Q39.5938 47.1719 37.8125 47.5781
Q36.0312 48 33.8906 48
Q26.2656 48 22.1875 43.0469
Q18.1094 38.0938 18.1094 28.8125
L18.1094 0
L9.07812 0
L9.07812 54.6875
L18.1094 54.6875
L18.1094 46.1875
Q20.9531 51.1719 25.4844 53.5781
Q30.0312 56 36.5312 56
Q37.4531 56 38.5781 55.875
Q39.7031 55.7656 41.0625 55.5156
z
" id="DejaVuSans-72"/>
     </defs>
     <g transform="translate(598.94375 441.403125)scale(0.2 -0.2)">
      <use xlink:href="#DejaVuSans-49"/>
      <use x="29.4921875" xlink:href="#DejaVuSans-72"/>
      <use x="68.85546875" xlink:href="#DejaVuSans-72"/>
      <use x="107.71875" xlink:href="#DejaVuSans-65"/>
      <use x="169.2421875" xlink:href="#DejaVuSans-76"/>
      <use x="228.421875" xlink:href="#DejaVuSans-65"/>
      <use x="289.9453125" xlink:href="#DejaVuSans-72"/>
      <use x="331.05859375" xlink:href="#DejaVuSans-73"/>
      <use x="383.158203125" xlink:href="#DejaVuSans-69"/>
      <use x="410.94140625" xlink:href="#DejaVuSans-62"/>
      <use x="474.41796875" xlink:href="#DejaVuSans-6c"/>
      <use x="502.201171875" xlink:href="#DejaVuSans-65"/>
     </g>
    </g>
    <g id="line2d_26">
     <path d="
M548.944 463.759
L576.944 463.759" style="fill:none;stroke:#0000ff;stroke-dasharray:6.000000,6.000000;stroke-dashoffset:0.0;stroke-linecap:butt;stroke-width:3.0;"/>
    </g>
    <g id="line2d_27"/>
    <g id="text_14">
     <!-- Quasi-reversible -->
     <defs>
      <path d="
M8.5 21.5781
L8.5 54.6875
L17.4844 54.6875
L17.4844 21.9219
Q17.4844 14.1562 20.5 10.2656
Q23.5312 6.39062 29.5938 6.39062
Q36.8594 6.39062 41.0781 11.0312
Q45.3125 15.6719 45.3125 23.6875
L45.3125 54.6875
L54.2969 54.6875
L54.2969 0
L45.3125 0
L45.3125 8.40625
Q42.0469 3.42188 37.7188 1
Q33.4062 -1.42188 27.6875 -1.42188
Q18.2656 -1.42188 13.375 4.4375
Q8.5 10.2969 8.5 21.5781
M31.1094 56
z
" id="DejaVuSans-75"/>
      <path d="
M39.4062 66.2188
Q28.6562 66.2188 22.3281 58.2031
Q16.0156 50.2031 16.0156 36.375
Q16.0156 22.6094 22.3281 14.5938
Q28.6562 6.59375 39.4062 6.59375
Q50.1406 6.59375 56.4219 14.5938
Q62.7031 22.6094 62.7031 36.375
Q62.7031 50.2031 56.4219 58.2031
Q50.1406 66.2188 39.4062 66.2188
M53.2188 1.3125
L66.2188 -12.8906
L54.2969 -12.8906
L43.5 -1.21875
Q41.8906 -1.3125 41.0312 -1.35938
Q40.1875 -1.42188 39.4062 -1.42188
Q24.0312 -1.42188 14.8125 8.85938
Q5.60938 19.1406 5.60938 36.375
Q5.60938 53.6562 14.8125 63.9375
Q24.0312 74.2188 39.4062 74.2188
Q54.7344 74.2188 63.9062 63.9375
Q73.0938 53.6562 73.0938 36.375
Q73.0938 23.6875 67.9844 14.6406
Q62.8906 5.60938 53.2188 1.3125" id="DejaVuSans-51"/>
      <path d="
M34.2812 27.4844
Q23.3906 27.4844 19.1875 25
Q14.9844 22.5156 14.9844 16.5
Q14.9844 11.7188 18.1406 8.90625
Q21.2969 6.10938 26.7031 6.10938
Q34.1875 6.10938 38.7031 11.4062
Q43.2188 16.7031 43.2188 25.4844
L43.2188 27.4844
z

M52.2031 31.2031
L52.2031 0
L43.2188 0
L43.2188 8.29688
Q40.1406 3.32812 35.5469 0.953125
Q30.9531 -1.42188 24.3125 -1.42188
Q15.9219 -1.42188 10.9531 3.29688
Q6 8.01562 6 15.9219
Q6 25.1406 12.1719 29.8281
Q18.3594 34.5156 30.6094 34.5156
L43.2188 34.5156
L43.2188 35.4062
Q43.2188 41.6094 39.1406 45
Q35.0625 48.3906 27.6875 48.3906
Q23 48.3906 18.5469 47.2656
Q14.1094 46.1406 10.0156 43.8906
L10.0156 52.2031
Q14.9375 54.1094 19.5781 55.0469
Q24.2188 56 28.6094 56
Q40.4844 56 46.3438 49.8438
Q52.2031 43.7031 52.2031 31.2031" id="DejaVuSans-61"/>
     </defs>
     <g transform="translate(598.94375 470.759375)scale(0.2 -0.2)">
      <use xlink:href="#DejaVuSans-51"/>
      <use x="78.7109375" xlink:href="#DejaVuSans-75"/>
      <use x="142.08984375" xlink:href="#DejaVuSans-61"/>
      <use x="203.369140625" xlink:href="#DejaVuSans-73"/>
      <use x="255.46875" xlink:href="#DejaVuSans-69"/>
      <use x="283.251953125" xlink:href="#DejaVuSans-2d"/>
      <use x="319.3359375" xlink:href="#DejaVuSans-72"/>
      <use x="358.19921875" xlink:href="#DejaVuSans-65"/>
      <use x="419.72265625" xlink:href="#DejaVuSans-76"/>
      <use x="478.90234375" xlink:href="#DejaVuSans-65"/>
      <use x="540.42578125" xlink:href="#DejaVuSans-72"/>
      <use x="581.5390625" xlink:href="#DejaVuSans-73"/>
      <use x="633.638671875" xlink:href="#DejaVuSans-69"/>
      <use x="661.421875" xlink:href="#DejaVuSans-62"/>
      <use x="724.8984375" xlink:href="#DejaVuSans-6c"/>
      <use x="752.681640625" xlink:href="#DejaVuSans-65"/>
     </g>
    </g>
    <g id="line2d_28">
     <path d="
M548.944 493.116
L576.944 493.116" style="fill:none;stroke:#ff0000;stroke-width:3.0;"/>
    </g>
    <g id="line2d_29"/>
    <g id="text_15">
     <!-- Reversible -->
     <defs>
      <path d="
M44.3906 34.1875
Q47.5625 33.1094 50.5625 29.5938
Q53.5625 26.0781 56.5938 19.9219
L66.6094 0
L56 0
L46.6875 18.7031
Q43.0625 26.0312 39.6719 28.4219
Q36.2812 30.8125 30.4219 30.8125
L19.6719 30.8125
L19.6719 0
L9.8125 0
L9.8125 72.9062
L32.0781 72.9062
Q44.5781 72.9062 50.7344 67.6719
Q56.8906 62.4531 56.8906 51.9062
Q56.8906 45.0156 53.6875 40.4688
Q50.4844 35.9375 44.3906 34.1875
M19.6719 64.7969
L19.6719 38.9219
L32.0781 38.9219
Q39.2031 38.9219 42.8438 42.2188
Q46.4844 45.5156 46.4844 51.9062
Q46.4844 58.2969 42.8438 61.5469
Q39.2031 64.7969 32.0781 64.7969
z
" id="DejaVuSans-52"/>
     </defs>
     <g transform="translate(598.94375 500.115625)scale(0.2 -0.2)">
      <use xlink:href="#DejaVuSans-52"/>
      <use x="64.982421875" xlink:href="#DejaVuSans-65"/>
      <use x="126.505859375" xlink:href="#DejaVuSans-76"/>
      <use x="185.685546875" xlink:href="#DejaVuSans-65"/>
      <use x="247.208984375" xlink:href="#DejaVuSans-72"/>
      <use x="288.322265625" xlink:href="#DejaVuSans-73"/>
      <use x="340.421875" xlink:href="#DejaVuSans-69"/>
      <use x="368.205078125" xlink:href="#DejaVuSans-62"/>
      <use x="431.681640625" xlink:href="#DejaVuSans-6c"/>
      <use x="459.46484375" xlink:href="#DejaVuSans-65"/>
     </g>
    </g>
   </g>
  </g>
 </g>
 <defs>
  <clipPath id="p40d8c4fc83">
   <rect height="460.8" width="669.6" x="108.0" y="57.6"/>
  </clipPath>
 </defs>
</svg>
