<?xml version="1.0" encoding="utf-8" standalone="no"?>
<!DOCTYPE svg PUBLIC "-//W3C//DTD SVG 1.1//EN"
  "http://www.w3.org/Graphics/SVG/1.1/DTD/svg11.dtd">
<!-- Created with matplotlib (http://matplotlib.org/) -->
<svg height="576pt" version="1.1" viewBox="0 0 864 576" width="864pt" xmlns="http://www.w3.org/2000/svg" xmlns:xlink="http://www.w3.org/1999/xlink">
 <defs>
  <style type="text/css">
*{stroke-linecap:square;stroke-linejoin:round;}
  </style>
 </defs>
 <g id="figure_1">
  <g id="patch_1">
   <path d="
M0 576
L864 576
L864 0
L0 0
z
" style="fill:#ffffff;"/>
  </g>
  <g id="axes_1">
   <g id="patch_2">
    <path d="
M108 518.4
L777.6 518.4
L777.6 57.6
L108 57.6
z
" style="fill:#ffffff;"/>
   </g>
   <g id="line2d_1">
    <path clip-path="url(#p40d8c4fc83)" d="
M777.265 271.543
L493.69 271.651
L455.188 271.886
L431.417 272.242
L414.007 272.717
L400.28 273.31
L388.897 274.02
L379.188 274.846
L370.818 275.773
L363.118 276.85
L356.422 278.004
L350.06 279.326
L344.369 280.73
L339.012 282.275
L333.99 283.949
L329.303 285.736
L324.616 287.768
L320.263 289.9
L316.246 292.099
L312.228 294.542
L308.21 297.251
L304.193 300.248
L300.51 303.269
L296.827 306.568
L293.144 310.163
L289.462 314.07
L285.779 318.302
L282.096 322.87
L278.413 327.784
L274.73 333.046
L270.713 339.181
L266.695 345.717
L262.343 353.222
L257.656 361.747
L251.964 372.592
L242.59 391.062
L235.224 405.349
L230.872 413.345
L227.189 419.69
L223.841 425.029
L220.828 429.421
L218.149 432.955
L215.471 436.109
L213.127 438.538
L210.784 440.645
L208.775 442.188
L206.766 443.485
L204.757 444.533
L202.748 445.335
L200.74 445.893
L198.731 446.213
L196.722 446.303
L194.713 446.17
L192.704 445.827
L190.361 445.176
L188.017 444.276
L185.674 443.147
L182.995 441.61
L179.982 439.606
L176.634 437.097
L172.616 433.785
L167.594 429.331
L158.555 420.94
L149.18 412.361
L142.819 406.847
L137.128 402.194
L131.436 397.828
L125.744 393.752
L120.053 389.959
L114.361 386.436
L108.335 382.979
L108 382.795
L108.67 381.561
L109.674 380.366
L111.348 378.766
L113.692 376.841
L117.04 374.398
L121.392 371.522
L126.749 368.261
L133.78 364.265
L142.819 359.391
L176.969 341.205
L188.352 334.771
L200.74 327.523
L230.537 309.974
L239.576 304.984
L247.277 300.979
L254.642 297.401
L261.673 294.241
L268.369 291.476
L275.065 288.956
L281.761 286.68
L288.457 284.64
L295.153 282.826
L302.184 281.151
L309.55 279.626
L317.25 278.261
L325.62 277.012
L334.325 275.938
L344.034 274.968
L354.748 274.127
L366.8 273.408
L380.862 272.798
L397.937 272.286
L421.038 271.832
L488.668 270.639
L504.738 270.057
L517.46 269.383
L528.174 268.604
L537.548 267.708
L545.918 266.691
L553.619 265.532
L560.65 264.246
L567.011 262.864
L573.037 261.333
L578.729 259.662
L584.086 257.869
L589.442 255.841
L594.464 253.711
L599.486 251.344
L604.508 248.733
L609.53 245.874
L614.887 242.554
L620.244 238.971
L626.27 234.665
L633.636 229.11
L649.372 217.139
L654.394 213.648
L658.746 210.895
L662.429 208.817
L665.777 207.162
L669.125 205.754
L672.138 204.714
L675.151 203.899
L678.164 203.315
L681.178 202.961
L684.191 202.835
L687.204 202.928
L690.552 203.273
L693.9 203.851
L697.583 204.726
L701.6 205.923
L705.953 207.447
L711.31 209.557
L719.345 212.989
L735.08 219.737
L742.781 222.782
L750.146 225.467
L757.512 227.921
L765.212 230.249
L773.248 232.44
L777.6 233.534
L777.6 233.534" style="fill:none;stroke:#008000;stroke-dasharray:6.000000,6.000000;stroke-dashoffset:0.0;stroke-linecap:butt;stroke-width:3.0;"/>
   </g>
   <g id="line2d_2">
    <path clip-path="url(#p40d8c4fc83)" d="
M777.265 271.543
L581.072 271.651
L559.31 271.889
L545.249 272.25
L534.2 272.752
L525.161 273.383
L517.46 274.139
L510.764 275.009
L504.738 276.003
L499.046 277.162
L493.69 278.485
L488.668 279.962
L483.98 281.578
L479.628 283.31
L475.276 285.29
L471.258 287.364
L467.24 289.695
L463.558 292.08
L459.875 294.72
L456.192 297.634
L452.509 300.843
L448.826 304.364
L445.144 308.214
L441.461 312.411
L437.778 316.967
L434.095 321.892
L430.412 327.194
L426.73 332.873
L422.712 339.49
L418.694 346.532
L414.342 354.602
L409.32 364.407
L402.959 377.383
L388.228 407.707
L383.875 416.035
L380.192 422.605
L376.844 428.1
L373.831 432.59
L371.153 436.179
L368.809 438.982
L366.466 441.454
L364.122 443.584
L362.113 445.131
L360.104 446.417
L358.096 447.442
L356.087 448.209
L354.078 448.722
L352.069 448.986
L350.06 449.012
L348.052 448.809
L346.043 448.39
L343.699 447.644
L341.356 446.644
L339.012 445.414
L336.334 443.759
L333.32 441.623
L329.972 438.973
L325.955 435.499
L320.933 430.86
L298.836 410.096
L292.81 404.944
L287.118 400.384
L281.761 396.368
L276.404 392.617
L270.713 388.907
L265.021 385.465
L258.995 382.09
L252.634 378.804
L246.272 375.774
L239.576 372.833
L232.546 369.992
L224.845 367.137
L217.145 364.517
L209.11 362.006
L200.405 359.508
L191.03 357.047
L181.321 354.712
L170.942 352.426
L158.89 350.006
L146.837 347.802
L132.775 345.462
L117.709 343.191
L108 341.839
L108.335 341.789
L120.388 340.193
L139.136 337.93
L159.894 335.658
L185.004 333.149
L216.475 330.211
L248.951 327.103
L266.36 325.204
L279.418 323.56
L290.466 321.953
L300.175 320.327
L309.215 318.593
L317.585 316.765
L325.62 314.782
L333.32 312.652
L340.686 310.39
L348.052 307.897
L355.417 305.165
L362.783 302.191
L370.148 298.969
L377.179 295.657
L384.21 292.103
L390.906 288.479
L397.602 284.599
L403.963 280.647
L409.99 276.634
L415.681 272.569
L421.038 268.467
L426.06 264.351
L431.082 259.944
L435.769 255.545
L440.456 250.849
L445.144 245.838
L449.831 240.501
L454.518 234.832
L459.54 228.397
L464.897 221.146
L470.588 213.067
L478.289 201.711
L490.342 183.905
L495.364 176.92
L499.381 171.707
L502.729 167.696
L505.742 164.395
L508.756 161.426
L511.434 159.095
L514.112 157.073
L516.456 155.571
L518.8 154.327
L521.143 153.346
L523.487 152.631
L525.83 152.18
L528.174 151.988
L530.518 152.048
L532.861 152.352
L535.205 152.885
L537.548 153.633
L540.227 154.731
L542.905 156.06
L545.918 157.798
L549.266 159.982
L553.284 162.876
L558.306 166.784
L567.011 173.899
L576.385 181.468
L582.746 186.323
L588.438 190.406
L594.13 194.221
L599.821 197.765
L605.513 201.045
L611.204 204.077
L617.231 207.035
L623.592 209.901
L629.953 212.529
L636.649 215.064
L643.68 217.5
L651.38 219.933
L659.416 222.243
L668.12 224.516
L677.495 226.734
L687.539 228.883
L698.587 231.015
L710.64 233.105
L723.697 235.136
L737.759 237.096
L753.16 239.016
L770.234 240.913
L777.6 241.666
L777.6 241.666" style="fill:none;stroke:#0000ff;stroke-dasharray:6.000000,6.000000;stroke-dashoffset:0.0;stroke-linecap:butt;stroke-width:3.0;"/>
   </g>
   <g id="line2d_3">
    <path clip-path="url(#p40d8c4fc83)" d="
M777.265 271.543
L584.086 271.65
L564.667 271.884
L552.949 272.23
L544.244 272.697
L537.548 273.262
L531.857 273.954
L526.835 274.789
L522.482 275.742
L518.8 276.76
L515.452 277.894
L512.104 279.269
L509.09 280.752
L506.412 282.301
L503.734 284.101
L501.055 286.188
L498.712 288.283
L496.368 290.66
L494.024 293.353
L491.681 296.395
L489.337 299.823
L486.994 303.676
L484.65 307.992
L482.306 312.808
L479.963 318.159
L477.619 324.076
L475.276 330.585
L472.932 337.701
L470.254 346.582
L467.575 356.245
L464.562 367.988
L461.214 381.969
L456.862 401.185
L448.492 438.418
L445.478 450.759
L442.8 460.79
L440.456 468.661
L438.448 474.64
L436.774 479.038
L435.1 482.877
L433.426 486.147
L432.086 488.348
L430.747 490.181
L429.408 491.653
L428.069 492.771
L426.73 493.547
L425.725 493.911
L424.721 494.096
L423.382 494.077
L422.042 493.769
L420.703 493.192
L419.364 492.366
L417.69 491.013
L416.016 489.342
L414.007 486.972
L411.664 483.787
L408.985 479.711
L405.637 474.154
L400.615 465.299
L391.576 449.286
L386.888 441.453
L382.536 434.622
L378.518 428.733
L374.501 423.25
L370.483 418.165
L366.466 413.461
L362.448 409.113
L358.43 405.095
L354.413 401.38
L350.06 397.665
L345.708 394.241
L341.021 390.847
L336.334 387.721
L331.312 384.638
L325.955 381.615
L320.263 378.668
L314.572 375.958
L308.21 373.174
L301.514 370.486
L294.149 367.777
L286.114 365.075
L277.744 362.503
L268.704 359.962
L258.995 357.466
L247.946 354.878
L236.898 352.519
L224.845 350.166
L211.453 347.784
L197.392 345.507
L180.652 343.05
L164.581 340.911
L147.841 338.877
L128.423 336.73
L108 334.683
L108.67 334.619
L131.436 332.557
L155.876 330.556
L184.669 328.434
L213.797 326.505
L248.616 324.437
L288.122 322.311
L318.924 320.594
L331.981 319.654
L341.021 318.791
L348.052 317.905
L353.743 316.976
L358.765 315.934
L363.118 314.805
L367.135 313.522
L370.483 312.232
L373.831 310.698
L376.844 309.068
L379.523 307.386
L382.201 305.449
L384.88 303.22
L387.223 300.997
L389.567 298.488
L391.91 295.659
L394.254 292.476
L396.598 288.902
L398.941 284.898
L401.285 280.427
L403.628 275.451
L405.972 269.936
L408.316 263.85
L410.659 257.171
L413.338 248.792
L416.016 239.617
L418.694 229.671
L421.708 217.631
L425.39 201.894
L430.412 179.304
L436.774 150.832
L439.787 138.285
L442.465 128.041
L444.809 119.962
L446.818 113.793
L448.826 108.385
L450.5 104.49
L452.174 101.166
L453.514 98.9216
L454.853 97.0445
L456.192 95.529
L457.531 94.3677
L458.87 93.5491
L460.21 93.0607
L461.214 92.9016
L462.553 92.952
L463.892 93.2862
L465.232 93.8848
L466.571 94.7274
L468.245 96.0942
L469.919 97.7713
L471.928 100.139
L474.271 103.309
L476.95 107.351
L480.298 112.844
L485.654 122.161
L494.024 136.721
L498.712 144.415
L502.729 150.618
L506.747 156.424
L510.764 161.824
L514.447 166.424
L518.465 171.075
L522.482 175.367
L526.5 179.326
L530.518 182.978
L534.87 186.62
L539.222 189.968
L543.575 193.05
L548.262 196.104
L553.284 199.106
L558.641 202.037
L564.332 204.881
L570.359 207.63
L576.72 210.276
L583.081 212.697
L590.112 215.146
L598.147 217.691
L606.517 220.098
L615.892 222.541
L625.601 224.833
L635.98 227.054
L647.363 229.259
L659.75 231.424
L673.142 233.534
L687.539 235.574
L703.274 237.576
L720.684 239.558
L739.433 241.463
L759.856 243.309
L777.6 244.751
L777.6 244.751" style="fill:none;stroke:#ff0000;stroke-width:3.0;"/>
   </g>
   <g id="matplotlib.axis_1">
    <g id="xtick_1">
     <g id="line2d_4">
      <defs>
       <path d="
M0 0
L0 -5" id="m6aac6fddce" style="stroke:#000000;stroke-linecap:butt;stroke-width:0.5;"/>
      </defs>
      <g>
       <use style="stroke:#000000;stroke-linecap:butt;stroke-width:0.5;" x="181.909684297" xlink:href="#m6aac6fddce" y="518.4"/>
      </g>
     </g>
     <g id="line2d_5">
      <defs>
       <path d="
M0 0
L0 5" id="m4b5c49ac54" style="stroke:#000000;stroke-linecap:butt;stroke-width:0.5;"/>
      </defs>
      <g>
       <use style="stroke:#000000;stroke-linecap:butt;stroke-width:0.5;" x="181.909684297" xlink:href="#m4b5c49ac54" y="57.6"/>
      </g>
     </g>
     <g id="text_1">
      <!-- −0.4 -->
      <defs>
       <path d="
M31.7812 66.4062
Q24.1719 66.4062 20.3281 58.9062
Q16.5 51.4219 16.5 36.375
Q16.5 21.3906 20.3281 13.8906
Q24.1719 6.39062 31.7812 6.39062
Q39.4531 6.39062 43.2812 13.8906
Q47.125 21.3906 47.125 36.375
Q47.125 51.4219 43.2812 58.9062
Q39.4531 66.4062 31.7812 66.4062
M31.7812 74.2188
Q44.0469 74.2188 50.5156 64.5156
Q56.9844 54.8281 56.9844 36.375
Q56.9844 17.9688 50.5156 8.26562
Q44.0469 -1.42188 31.7812 -1.42188
Q19.5312 -1.42188 13.0625 8.26562
Q6.59375 17.9688 6.59375 36.375
Q6.59375 54.8281 13.0625 64.5156
Q19.5312 74.2188 31.7812 74.2188" id="DejaVuSans-30"/>
       <path d="
M10.6875 12.4062
L21 12.4062
L21 0
L10.6875 0
z
" id="DejaVuSans-2e"/>
       <path d="
M37.7969 64.3125
L12.8906 25.3906
L37.7969 25.3906
z

M35.2031 72.9062
L47.6094 72.9062
L47.6094 25.3906
L58.0156 25.3906
L58.0156 17.1875
L47.6094 17.1875
L47.6094 0
L37.7969 0
L37.7969 17.1875
L4.89062 17.1875
L4.89062 26.7031
z
" id="DejaVuSans-34"/>
       <path d="
M10.5938 35.5
L73.1875 35.5
L73.1875 27.2031
L10.5938 27.2031
z
" id="DejaVuSans-2212"/>
      </defs>
      <g transform="translate(159.247184297 537.24375)scale(0.2 -0.2)">
       <use xlink:href="#DejaVuSans-2212"/>
       <use x="83.7890625" xlink:href="#DejaVuSans-30"/>
       <use x="147.412109375" xlink:href="#DejaVuSans-2e"/>
       <use x="179.19921875" xlink:href="#DejaVuSans-34"/>
      </g>
     </g>
    </g>
    <g id="xtick_2">
     <g id="line2d_6">
      <g>
       <use style="stroke:#000000;stroke-linecap:butt;stroke-width:0.5;" x="312.354842149" xlink:href="#m6aac6fddce" y="518.4"/>
      </g>
     </g>
     <g id="line2d_7">
      <g>
       <use style="stroke:#000000;stroke-linecap:butt;stroke-width:0.5;" x="312.354842149" xlink:href="#m4b5c49ac54" y="57.6"/>
      </g>
     </g>
     <g id="text_2">
      <!-- −0.2 -->
      <defs>
       <path d="
M19.1875 8.29688
L53.6094 8.29688
L53.6094 0
L7.32812 0
L7.32812 8.29688
Q12.9375 14.1094 22.625 23.8906
Q32.3281 33.6875 34.8125 36.5312
Q39.5469 41.8438 41.4219 45.5312
Q43.3125 49.2188 43.3125 52.7812
Q43.3125 58.5938 39.2344 62.25
Q35.1562 65.9219 28.6094 65.9219
Q23.9688 65.9219 18.8125 64.3125
Q13.6719 62.7031 7.8125 59.4219
L7.8125 69.3906
Q13.7656 71.7812 18.9375 73
Q24.125 74.2188 28.4219 74.2188
Q39.75 74.2188 46.4844 68.5469
Q53.2188 62.8906 53.2188 53.4219
Q53.2188 48.9219 51.5312 44.8906
Q49.8594 40.875 45.4062 35.4062
Q44.1875 33.9844 37.6406 27.2188
Q31.1094 20.4531 19.1875 8.29688" id="DejaVuSans-32"/>
      </defs>
      <g transform="translate(290.132967149 537.24375)scale(0.2 -0.2)">
       <use xlink:href="#DejaVuSans-2212"/>
       <use x="83.7890625" xlink:href="#DejaVuSans-30"/>
       <use x="147.412109375" xlink:href="#DejaVuSans-2e"/>
       <use x="179.19921875" xlink:href="#DejaVuSans-32"/>
      </g>
     </g>
    </g>
    <g id="xtick_3">
     <g id="line2d_8">
      <g>
       <use style="stroke:#000000;stroke-linecap:butt;stroke-width:0.5;" x="442.8" xlink:href="#m6aac6fddce" y="518.4"/>
      </g>
     </g>
     <g id="line2d_9">
      <g>
       <use style="stroke:#000000;stroke-linecap:butt;stroke-width:0.5;" x="442.8" xlink:href="#m4b5c49ac54" y="57.6"/>
      </g>
     </g>
     <g id="text_3">
      <!-- 0.0 -->
      <g transform="translate(428.2203125 537.24375)scale(0.2 -0.2)">
       <use xlink:href="#DejaVuSans-30"/>
       <use x="63.623046875" xlink:href="#DejaVuSans-2e"/>
       <use x="95.41015625" xlink:href="#DejaVuSans-30"/>
      </g>
     </g>
    </g>
    <g id="xtick_4">
     <g id="line2d_10">
      <g>
       <use style="stroke:#000000;stroke-linecap:butt;stroke-width:0.5;" x="573.245157851" xlink:href="#m6aac6fddce" y="518.4"/>
      </g>
     </g>
     <g id="line2d_11">
      <g>
       <use style="stroke:#000000;stroke-linecap:butt;stroke-width:0.5;" x="573.245157851" xlink:href="#m4b5c49ac54" y="57.6"/>
      </g>
     </g>
     <g id="text_4">
      <!-- 0.2 -->
      <g transform="translate(559.002970351 537.24375)scale(0.2 -0.2)">
       <use xlink:href="#DejaVuSans-30"/>
       <use x="63.623046875" xlink:href="#DejaVuSans-2e"/>
       <use x="95.41015625" xlink:href="#DejaVuSans-32"/>
      </g>
     </g>
    </g>
    <g id="xtick_5">
     <g id="line2d_12">
      <g>
       <use style="stroke:#000000;stroke-linecap:butt;stroke-width:0.5;" x="703.690315703" xlink:href="#m6aac6fddce" y="518.4"/>
      </g>
     </g>
     <g id="line2d_13">
      <g>
       <use style="stroke:#000000;stroke-linecap:butt;stroke-width:0.5;" x="703.690315703" xlink:href="#m4b5c49ac54" y="57.6"/>
      </g>
     </g>
     <g id="text_5">
      <!-- 0.4 -->
      <g transform="translate(689.007503203 537.24375)scale(0.2 -0.2)">
       <use xlink:href="#DejaVuSans-30"/>
       <use x="63.623046875" xlink:href="#DejaVuSans-2e"/>
       <use x="95.41015625" xlink:href="#DejaVuSans-34"/>
      </g>
     </g>
    </g>
    <g id="text_6">
     <!-- E (V) -->
     <defs>
      <path d="
M9.8125 72.9062
L55.9062 72.9062
L55.9062 64.5938
L19.6719 64.5938
L19.6719 43.0156
L54.3906 43.0156
L54.3906 34.7188
L19.6719 34.7188
L19.6719 8.29688
L56.7812 8.29688
L56.7812 0
L9.8125 0
z
" id="DejaVuSans-45"/>
      <path id="DejaVuSans-20"/>
      <path d="
M8.01562 75.875
L15.8281 75.875
Q23.1406 64.3594 26.7812 53.3125
Q30.4219 42.2812 30.4219 31.3906
Q30.4219 20.4531 26.7812 9.375
Q23.1406 -1.70312 15.8281 -13.1875
L8.01562 -13.1875
Q14.5 -2 17.7031 9.0625
Q20.9062 20.125 20.9062 31.3906
Q20.9062 42.6719 17.7031 53.6562
Q14.5 64.6562 8.01562 75.875" id="DejaVuSans-29"/>
      <path d="
M31 75.875
Q24.4688 64.6562 21.2812 53.6562
Q18.1094 42.6719 18.1094 31.3906
Q18.1094 20.125 21.3125 9.0625
Q24.5156 -2 31 -13.1875
L23.1875 -13.1875
Q15.875 -1.70312 12.2344 9.375
Q8.59375 20.4531 8.59375 31.3906
Q8.59375 42.2812 12.2031 53.3125
Q15.8281 64.3594 23.1875 75.875
z
" id="DejaVuSans-28"/>
      <path d="
M28.6094 0
L0.78125 72.9062
L11.0781 72.9062
L34.1875 11.5312
L57.3281 72.9062
L67.5781 72.9062
L39.7969 0
z
" id="DejaVuSans-56"/>
     </defs>
     <g transform="translate(419.51875 557.703125)scale(0.2 -0.2)">
      <use xlink:href="#DejaVuSans-45"/>
      <use x="63.18359375" xlink:href="#DejaVuSans-20"/>
      <use x="94.970703125" xlink:href="#DejaVuSans-28"/>
      <use x="133.984375" xlink:href="#DejaVuSans-56"/>
      <use x="202.392578125" xlink:href="#DejaVuSans-29"/>
     </g>
    </g>
   </g>
   <g id="matplotlib.axis_2">
    <g id="ytick_1">
     <g id="line2d_14">
      <defs>
       <path d="
M0 0
L5 0" id="m231770b6f4" style="stroke:#000000;stroke-linecap:butt;stroke-width:0.5;"/>
      </defs>
      <g>
       <use style="stroke:#000000;stroke-linecap:butt;stroke-width:0.5;" x="108.0" xlink:href="#m231770b6f4" y="518.4"/>
      </g>
     </g>
     <g id="line2d_15">
      <defs>
       <path d="
M0 0
L-5 0" id="mb336220e2d" style="stroke:#000000;stroke-linecap:butt;stroke-width:0.5;"/>
      </defs>
      <g>
       <use style="stroke:#000000;stroke-linecap:butt;stroke-width:0.5;" x="777.6" xlink:href="#mb336220e2d" y="518.4"/>
      </g>
     </g>
     <g id="text_7">
      <!-- −15 -->
      <defs>
       <path d="
M12.4062 8.29688
L28.5156 8.29688
L28.5156 63.9219
L10.9844 60.4062
L10.9844 69.3906
L28.4219 72.9062
L38.2812 72.9062
L38.2812 8.29688
L54.3906 8.29688
L54.3906 0
L12.4062 0
z
" id="DejaVuSans-31"/>
       <path d="
M10.7969 72.9062
L49.5156 72.9062
L49.5156 64.5938
L19.8281 64.5938
L19.8281 46.7344
Q21.9688 47.4688 24.1094 47.8281
Q26.2656 48.1875 28.4219 48.1875
Q40.625 48.1875 47.75 41.5
Q54.8906 34.8125 54.8906 23.3906
Q54.8906 11.625 47.5625 5.09375
Q40.2344 -1.42188 26.9062 -1.42188
Q22.3125 -1.42188 17.5469 -0.640625
Q12.7969 0.140625 7.71875 1.70312
L7.71875 11.625
Q12.1094 9.23438 16.7969 8.0625
Q21.4844 6.89062 26.7031 6.89062
Q35.1562 6.89062 40.0781 11.3281
Q45.0156 15.7656 45.0156 23.3906
Q45.0156 31 40.0781 35.4375
Q35.1562 39.8906 26.7031 39.8906
Q22.75 39.8906 18.8125 39.0156
Q14.8906 38.1406 10.7969 36.2812
z
" id="DejaVuSans-35"/>
      </defs>
      <g transform="translate(65.65625 525.5484375)scale(0.2 -0.2)">
       <use xlink:href="#DejaVuSans-2212"/>
       <use x="83.7890625" xlink:href="#DejaVuSans-31"/>
       <use x="147.412109375" xlink:href="#DejaVuSans-35"/>
      </g>
     </g>
    </g>
    <g id="ytick_2">
     <g id="line2d_16">
      <g>
       <use style="stroke:#000000;stroke-linecap:butt;stroke-width:0.5;" x="108.0" xlink:href="#m231770b6f4" y="436.114285714"/>
      </g>
     </g>
     <g id="line2d_17">
      <g>
       <use style="stroke:#000000;stroke-linecap:butt;stroke-width:0.5;" x="777.6" xlink:href="#mb336220e2d" y="436.114285714"/>
      </g>
     </g>
     <g id="text_8">
      <!-- −10 -->
      <g transform="translate(65.2375 443.393973214)scale(0.2 -0.2)">
       <use xlink:href="#DejaVuSans-2212"/>
       <use x="83.7890625" xlink:href="#DejaVuSans-31"/>
       <use x="147.412109375" xlink:href="#DejaVuSans-30"/>
      </g>
     </g>
    </g>
    <g id="ytick_3">
     <g id="line2d_18">
      <g>
       <use style="stroke:#000000;stroke-linecap:butt;stroke-width:0.5;" x="108.0" xlink:href="#m231770b6f4" y="353.828571429"/>
      </g>
     </g>
     <g id="line2d_19">
      <g>
       <use style="stroke:#000000;stroke-linecap:butt;stroke-width:0.5;" x="777.6" xlink:href="#mb336220e2d" y="353.828571429"/>
      </g>
     </g>
     <g id="text_9">
      <!-- −5 -->
      <g transform="translate(78.38125 360.977008929)scale(0.2 -0.2)">
       <use xlink:href="#DejaVuSans-2212"/>
       <use x="83.7890625" xlink:href="#DejaVuSans-35"/>
      </g>
     </g>
    </g>
    <g id="ytick_4">
     <g id="line2d_20">
      <g>
       <use style="stroke:#000000;stroke-linecap:butt;stroke-width:0.5;" x="108.0" xlink:href="#m231770b6f4" y="271.542857143"/>
      </g>
     </g>
     <g id="line2d_21">
      <g>
       <use style="stroke:#000000;stroke-linecap:butt;stroke-width:0.5;" x="777.6" xlink:href="#mb336220e2d" y="271.542857143"/>
      </g>
     </g>
     <g id="text_10">
      <!-- 0 -->
      <g transform="translate(93.921875 278.822544643)scale(0.2 -0.2)">
       <use xlink:href="#DejaVuSans-30"/>
      </g>
     </g>
    </g>
    <g id="ytick_5">
     <g id="line2d_22">
      <g>
       <use style="stroke:#000000;stroke-linecap:butt;stroke-width:0.5;" x="108.0" xlink:href="#m231770b6f4" y="189.257142857"/>
      </g>
     </g>
     <g id="line2d_23">
      <g>
       <use style="stroke:#000000;stroke-linecap:butt;stroke-width:0.5;" x="777.6" xlink:href="#mb336220e2d" y="189.257142857"/>
      </g>
     </g>
     <g id="text_11">
      <!-- 5 -->
      <g transform="translate(94.565625 196.405580357)scale(0.2 -0.2)">
       <use xlink:href="#DejaVuSans-35"/>
      </g>
     </g>
    </g>
    <g id="ytick_6">
     <g id="line2d_24">
      <g>
       <use style="stroke:#000000;stroke-linecap:butt;stroke-width:0.5;" x="108.0" xlink:href="#m231770b6f4" y="106.971428571"/>
      </g>
     </g>
     <g id="line2d_25">
      <g>
       <use style="stroke:#000000;stroke-linecap:butt;stroke-width:0.5;" x="777.6" xlink:href="#mb336220e2d" y="106.971428571"/>
      </g>
     </g>
     <g id="text_12">
      <!-- 10 -->
      <g transform="translate(82.075 114.251116071)scale(0.2 -0.2)">
       <use xlink:href="#DejaVuSans-31"/>
       <use x="63.623046875" xlink:href="#DejaVuSans-30"/>
      </g>
     </g>
    </g>
    <g id="text_13">
     <!-- I (*$\mathregular{10^{-4}}$A) -->
     <defs>
      <path d="
M47.0156 60.8906
L29.5 51.4219
L47.0156 41.8906
L44.1875 37.1094
L27.7812 47.0156
L27.7812 28.6094
L22.2188 28.6094
L22.2188 47.0156
L5.8125 37.1094
L2.98438 41.8906
L20.5156 51.4219
L2.98438 60.8906
L5.8125 65.7188
L22.2188 55.8125
L22.2188 74.2188
L27.7812 74.2188
L27.7812 55.8125
L44.1875 65.7188
z
" id="DejaVuSans-2a"/>
      <path d="
M9.8125 72.9062
L19.6719 72.9062
L19.6719 0
L9.8125 0
z
" id="DejaVuSans-49"/>
      <path d="
M4.89062 31.3906
L31.2031 31.3906
L31.2031 23.3906
L4.89062 23.3906
z
" id="DejaVuSans-2d"/>
      <path d="
M34.1875 63.1875
L20.7969 26.9062
L47.6094 26.9062
z

M28.6094 72.9062
L39.7969 72.9062
L67.5781 0
L57.3281 0
L50.6875 18.7031
L17.8281 18.7031
L11.1875 0
L0.78125 0
z
" id="DejaVuSans-41"/>
     </defs>
     <g transform="translate(60.2375 334.6)rotate(-90.0)scale(0.2 -0.2)">
      <use transform="translate(0.0 14.153125)" xlink:href="#DejaVuSans-49"/>
      <use transform="translate(29.4921875 14.153125)" xlink:href="#DejaVuSans-20"/>
      <use transform="translate(61.279296875 14.153125)" xlink:href="#DejaVuSans-28"/>
      <use transform="translate(100.29296875 14.153125)" xlink:href="#DejaVuSans-2a"/>
      <use transform="translate(150.29296875 14.153125)" xlink:href="#DejaVuSans-31"/>
      <use transform="translate(213.916015625 14.153125)" xlink:href="#DejaVuSans-30"/>
      <use transform="translate(277.5390625 71.965625)scale(0.7)" xlink:href="#DejaVuSans-2d"/>
      <use transform="translate(302.797851562 71.965625)scale(0.7)" xlink:href="#DejaVuSans-34"/>
      <use transform="translate(358.271484375 14.153125)" xlink:href="#DejaVuSans-41"/>
      <use transform="translate(426.6796875 14.153125)" xlink:href="#DejaVuSans-29"/>
     </g>
    </g>
   </g>
   <g id="patch_3">
    <path d="
M108 57.6
L777.6 57.6" style="fill:none;stroke:#000000;stroke-width:1.5;"/>
   </g>
   <g id="patch_4">
    <path d="
M777.6 518.4
L777.6 57.6" style="fill:none;stroke:#000000;stroke-width:1.5;"/>
   </g>
   <g id="patch_5">
    <path d="
M108 518.4
L777.6 518.4" style="fill:none;stroke:#000000;stroke-width:1.5;"/>
   </g>
   <g id="patch_6">
    <path d="
M108 518.4
L108 57.6" style="fill:none;stroke:#000000;stroke-width:1.5;"/>
   </g>
   <g id="legend_1">
    <g id="patch_7">
     <path d="
M534.944 508.4
L767.6 508.4
L767.6 418.206
L534.944 418.206
L534.944 508.4
z
" style="fill:#ffffff;stroke:#000000;"/>
    </g>
    <g id="line2d_26">
     <path d="
M548.944 434.403
L576.944 434.403" style="fill:none;stroke:#008000;stroke-dasharray:6.000000,6.000000;stroke-dashoffset:0.0;stroke-linecap:butt;stroke-width:3.0;"/>
    </g>
    <g id="line2d_27"/>
    <g id="text_14">
     <!-- Irreversible -->
     <defs>
      <path d="
M2.98438 54.6875
L12.5 54.6875
L29.5938 8.79688
L46.6875 54.6875
L56.2031 54.6875
L35.6875 0
L23.4844 0
z
" id="DejaVuSans-76"/>
      <path d="
M9.42188 75.9844
L18.4062 75.9844
L18.4062 0
L9.42188 0
z
" id="DejaVuSans-6c"/>
      <path d="
M9.42188 54.6875
L18.4062 54.6875
L18.4062 0
L9.42188 0
z

M9.42188 75.9844
L18.4062 75.9844
L18.4062 64.5938
L9.42188 64.5938
z
" id="DejaVuSans-69"/>
      <path d="
M56.2031 29.5938
L56.2031 25.2031
L14.8906 25.2031
Q15.4844 15.9219 20.4844 11.0625
Q25.4844 6.20312 34.4219 6.20312
Q39.5938 6.20312 44.4531 7.46875
Q49.3125 8.73438 54.1094 11.2812
L54.1094 2.78125
Q49.2656 0.734375 44.1875 -0.34375
Q39.1094 -1.42188 33.8906 -1.42188
Q20.7969 -1.42188 13.1562 6.1875
Q5.51562 13.8125 5.51562 26.8125
Q5.51562 40.2344 12.7656 48.1094
Q20.0156 56 32.3281 56
Q43.3594 56 49.7812 48.8906
Q56.2031 41.7969 56.2031 29.5938
M47.2188 32.2344
Q47.125 39.5938 43.0938 43.9844
Q39.0625 48.3906 32.4219 48.3906
Q24.9062 48.3906 20.3906 44.1406
Q15.875 39.8906 15.1875 32.1719
z
" id="DejaVuSans-65"/>
      <path d="
M48.6875 27.2969
Q48.6875 37.2031 44.6094 42.8438
Q40.5312 48.4844 33.4062 48.4844
Q26.2656 48.4844 22.1875 42.8438
Q18.1094 37.2031 18.1094 27.2969
Q18.1094 17.3906 22.1875 11.75
Q26.2656 6.10938 33.4062 6.10938
Q40.5312 6.10938 44.6094 11.75
Q48.6875 17.3906 48.6875 27.2969
M18.1094 46.3906
Q20.9531 51.2656 25.2656 53.625
Q29.5938 56 35.5938 56
Q45.5625 56 51.7812 48.0938
Q58.0156 40.1875 58.0156 27.2969
Q58.0156 14.4062 51.7812 6.48438
Q45.5625 -1.42188 35.5938 -1.42188
Q29.5938 -1.42188 25.2656 0.953125
Q20.9531 3.32812 18.1094 8.20312
L18.1094 0
L9.07812 0
L9.07812 75.9844
L18.1094 75.9844
z
" id="DejaVuSans-62"/>
      <path d="
M44.2812 53.0781
L44.2812 44.5781
Q40.4844 46.5312 36.375 47.5
Q32.2812 48.4844 27.875 48.4844
Q21.1875 48.4844 17.8438 46.4375
Q14.5 44.3906 14.5 40.2812
Q14.5 37.1562 16.8906 35.375
Q19.2812 33.5938 26.5156 31.9844
L29.5938 31.2969
Q39.1562 29.25 43.1875 25.5156
Q47.2188 21.7812 47.2188 15.0938
Q47.2188 7.46875 41.1875 3.01562
Q35.1562 -1.42188 24.6094 -1.42188
Q20.2188 -1.42188 15.4531 -0.5625
Q10.6875 0.296875 5.42188 2
L5.42188 11.2812
Q10.4062 8.6875 15.2344 7.39062
Q20.0625 6.10938 24.8125 6.10938
Q31.1562 6.10938 34.5625 8.28125
Q37.9844 10.4531 37.9844 14.4062
Q37.9844 18.0625 35.5156 20.0156
Q33.0625 21.9688 24.7031 23.7812
L21.5781 24.5156
Q13.2344 26.2656 9.51562 29.9062
Q5.8125 33.5469 5.8125 39.8906
Q5.8125 47.6094 11.2812 51.7969
Q16.75 56 26.8125 56
Q31.7812 56 36.1719 55.2656
Q40.5781 54.5469 44.2812 53.0781" id="DejaVuSans-73"/>
      <path d="
M41.1094 46.2969
Q39.5938 47.1719 37.8125 47.5781
Q36.0312 48 33.8906 48
Q26.2656 48 22.1875 43.0469
Q18.1094 38.0938 18.1094 28.8125
L18.1094 0
L9.07812 0
L9.07812 54.6875
L18.1094 54.6875
L18.1094 46.1875
Q20.9531 51.1719 25.4844 53.5781
Q30.0312 56 36.5312 56
Q37.4531 56 38.5781 55.875
Q39.7031 55.7656 41.0625 55.5156
z
" id="DejaVuSans-72"/>
     </defs>
     <g transform="translate(598.94375 441.403125)scale(0.2 -0.2)">
      <use xlink:href="#DejaVuSans-49"/>
      <use x="29.4921875" xlink:href="#DejaVuSans-72"/>
      <use x="68.85546875" xlink:href="#DejaVuSans-72"/>
      <use x="107.71875" xlink:href="#DejaVuSans-65"/>
      <use x="169.2421875" xlink:href="#DejaVuSans-76"/>
      <use x="228.421875" xlink:href="#DejaVuSans-65"/>
      <use x="289.9453125" xlink:href="#DejaVuSans-72"/>
      <use x="331.05859375" xlink:href="#DejaVuSans-73"/>
      <use x="383.158203125" xlink:href="#DejaVuSans-69"/>
      <use x="410.94140625" xlink:href="#DejaVuSans-62"/>
      <use x="474.41796875" xlink:href="#DejaVuSans-6c"/>
      <use x="502.201171875" xlink:href="#DejaVuSans-65"/>
     </g>
    </g>
    <g id="line2d_28">
     <path d="
M548.944 463.759
L576.944 463.759" style="fill:none;stroke:#0000ff;stroke-dasharray:6.000000,6.000000;stroke-dashoffset:0.0;stroke-linecap:butt;stroke-width:3.0;"/>
    </g>
    <g id="line2d_29"/>
    <g id="text_15">
     <!-- Quasi-reversible -->
     <defs>
      <path d="
M8.5 21.5781
L8.5 54.6875
L17.4844 54.6875
L17.4844 21.9219
Q17.4844 14.1562 20.5 10.2656
Q23.5312 6.39062 29.5938 6.39062
Q36.8594 6.39062 41.0781 11.0312
Q45.3125 15.6719 45.3125 23.6875
L45.3125 54.6875
L54.2969 54.6875
L54.2969 0
L45.3125 0
L45.3125 8.40625
Q42.0469 3.42188 37.7188 1
Q33.4062 -1.42188 27.6875 -1.42188
Q18.2656 -1.42188 13.375 4.4375
Q8.5 10.2969 8.5 21.5781
M31.1094 56
z
" id="DejaVuSans-75"/>
      <path d="
M39.4062 66.2188
Q28.6562 66.2188 22.3281 58.2031
Q16.0156 50.2031 16.0156 36.375
Q16.0156 22.6094 22.3281 14.5938
Q28.6562 6.59375 39.4062 6.59375
Q50.1406 6.59375 56.4219 14.5938
Q62.7031 22.6094 62.7031 36.375
Q62.7031 50.2031 56.4219 58.2031
Q50.1406 66.2188 39.4062 66.2188
M53.2188 1.3125
L66.2188 -12.8906
L54.2969 -12.8906
L43.5 -1.21875
Q41.8906 -1.3125 41.0312 -1.35938
Q40.1875 -1.42188 39.4062 -1.42188
Q24.0312 -1.42188 14.8125 8.85938
Q5.60938 19.1406 5.60938 36.375
Q5.60938 53.6562 14.8125 63.9375
Q24.0312 74.2188 39.4062 74.2188
Q54.7344 74.2188 63.9062 63.9375
Q73.0938 53.6562 73.0938 36.375
Q73.0938 23.6875 67.9844 14.6406
Q62.8906 5.60938 53.2188 1.3125" id="DejaVuSans-51"/>
      <path d="
M34.2812 27.4844
Q23.3906 27.4844 19.1875 25
Q14.9844 22.5156 14.9844 16.5
Q14.9844 11.7188 18.1406 8.90625
Q21.2969 6.10938 26.7031 6.10938
Q34.1875 6.10938 38.7031 11.4062
Q43.2188 16.7031 43.2188 25.4844
L43.2188 27.4844
z

M52.2031 31.2031
L52.2031 0
L43.2188 0
L43.2188 8.29688
Q40.1406 3.32812 35.5469 0.953125
Q30.9531 -1.42188 24.3125 -1.42188
Q15.9219 -1.42188 10.9531 3.29688
Q6 8.01562 6 15.9219
Q6 25.1406 12.1719 29.8281
Q18.3594 34.5156 30.6094 34.5156
L43.2188 34.5156
L43.2188 35.4062
Q43.2188 41.6094 39.1406 45
Q35.0625 48.3906 27.6875 48.3906
Q23 48.3906 18.5469 47.2656
Q14.1094 46.1406 10.0156 43.8906
L10.0156 52.2031
Q14.9375 54.1094 19.5781 55.0469
Q24.2188 56 28.6094 56
Q40.4844 56 46.3438 49.8438
Q52.2031 43.7031 52.2031 31.2031" id="DejaVuSans-61"/>
     </defs>
     <g transform="translate(598.94375 470.759375)scale(0.2 -0.2)">
      <use xlink:href="#DejaVuSans-51"/>
      <use x="78.7109375" xlink:href="#DejaVuSans-75"/>
      <use x="142.08984375" xlink:href="#DejaVuSans-61"/>
      <use x="203.369140625" xlink:href="#DejaVuSans-73"/>
      <use x="255.46875" xlink:href="#DejaVuSans-69"/>
      <use x="283.251953125" xlink:href="#DejaVuSans-2d"/>
      <use x="319.3359375" xlink:href="#DejaVuSans-72"/>
      <use x="358.19921875" xlink:href="#DejaVuSans-65"/>
      <use x="419.72265625" xlink:href="#DejaVuSans-76"/>
      <use x="478.90234375" xlink:href="#DejaVuSans-65"/>
      <use x="540.42578125" xlink:href="#DejaVuSans-72"/>
      <use x="581.5390625" xlink:href="#DejaVuSans-73"/>
      <use x="633.638671875" xlink:href="#DejaVuSans-69"/>
      <use x="661.421875" xlink:href="#DejaVuSans-62"/>
      <use x="724.8984375" xlink:href="#DejaVuSans-6c"/>
      <use x="752.681640625" xlink:href="#DejaVuSans-65"/>
     </g>
    </g>
    <g id="line2d_30">
     <path d="
M548.944 493.116
L576.944 493.116" style="fill:none;stroke:#ff0000;stroke-width:3.0;"/>
    </g>
    <g id="line2d_31"/>
    <g id="text_16">
     <!-- Reversible -->
     <defs>
      <path d="
M44.3906 34.1875
Q47.5625 33.1094 50.5625 29.5938
Q53.5625 26.0781 56.5938 19.9219
L66.6094 0
L56 0
L46.6875 18.7031
Q43.0625 26.0312 39.6719 28.4219
Q36.2812 30.8125 30.4219 30.8125
L19.6719 30.8125
L19.6719 0
L9.8125 0
L9.8125 72.9062
L32.0781 72.9062
Q44.5781 72.9062 50.7344 67.6719
Q56.8906 62.4531 56.8906 51.9062
Q56.8906 45.0156 53.6875 40.4688
Q50.4844 35.9375 44.3906 34.1875
M19.6719 64.7969
L19.6719 38.9219
L32.0781 38.9219
Q39.2031 38.9219 42.8438 42.2188
Q46.4844 45.5156 46.4844 51.9062
Q46.4844 58.2969 42.8438 61.5469
Q39.2031 64.7969 32.0781 64.7969
z
" id="DejaVuSans-52"/>
     </defs>
     <g transform="translate(598.94375 500.115625)scale(0.2 -0.2)">
      <use xlink:href="#DejaVuSans-52"/>
      <use x="64.982421875" xlink:href="#DejaVuSans-65"/>
      <use x="126.505859375" xlink:href="#DejaVuSans-76"/>
      <use x="185.685546875" xlink:href="#DejaVuSans-65"/>
      <use x="247.208984375" xlink:href="#DejaVuSans-72"/>
      <use x="288.322265625" xlink:href="#DejaVuSans-73"/>
      <use x="340.421875" xlink:href="#DejaVuSans-69"/>
      <use x="368.205078125" xlink:href="#DejaVuSans-62"/>
      <use x="431.681640625" xlink:href="#DejaVuSans-6c"/>
      <use x="459.46484375" xlink:href="#DejaVuSans-65"/>
     </g>
    </g>
   </g>
  </g>
 </g>
 <defs>
  <clipPath id="p40d8c4fc83">
   <rect height="460.8" width="669.6" x="108.0" y="57.6"/>
  </clipPath>
 </defs>
</svg>
